# OBJ File Exported By Crafty (c) 2006 Ryan Gregg
# http://nemesis.thewavelength.net/

mtllib box.mtl

v -20.223948 24.908197 40.452950
v 20.223948 24.908197 40.452950
v 20.223948 24.908199 -0.331884
v -20.223948 24.908199 -0.331884
v 19.201387 24.047369 39.566914
v -19.201387 24.047369 39.566914
v 19.201387 -24.047373 39.566914
v -19.201387 -24.047373 39.566914
v -20.223948 -24.908199 -0.331887
v -20.223948 -24.908201 40.452950
v -20.223948 24.908197 40.452950
v -20.223948 24.908199 -0.331884
v 20.223948 24.908197 40.452950
v 20.223948 24.908199 -0.331884
v 20.223948 -24.908201 40.452950
v 20.223948 -24.908199 -0.331887
v -20.223948 -24.908201 40.452950
v 20.223948 -24.908201 40.452950
v 20.223948 24.908197 40.452950
v -20.223948 24.908197 40.452950
v 20.223948 -24.908199 -0.331887
v -20.223948 -24.908199 -0.331887
v 20.223948 -24.908201 40.452950
v -20.223948 -24.908201 40.452950
v 20.223948 32.612270 -13.445070
v 19.201387 31.866772 -13.875484
v -19.201387 31.866772 -13.875484
v -20.223948 32.612270 -13.445070
v 26.850740 -24.908199 -13.670218
v 26.850740 24.908199 -13.670216
v 25.965179 -24.047371 -14.181497
v 25.965179 24.047371 -14.181495
v -20.223948 -32.612270 -13.445072
v -19.201387 -31.866772 -13.875486
v 19.201387 -31.866772 -13.875486
v 20.223948 -32.612270 -13.445072
v -26.850740 24.908199 -13.670216
v -26.850740 -24.908199 -13.670218
v -25.965179 24.047371 -14.181495
v -25.965179 -24.047371 -14.181497
v 19.201387 24.047371 -0.331884
v 19.201387 24.047369 39.566914
v -19.201387 24.047369 39.566914
v -19.201387 24.047371 -0.331884
v 19.201387 -24.047371 -0.331887
v 19.201387 24.047371 -0.331884
v 19.201387 -24.047373 39.566914
v 19.201387 24.047369 39.566914
v -19.201387 -24.047371 -0.331887
v -19.201387 -24.047373 39.566914
v 19.201387 -24.047373 39.566914
v 19.201387 -24.047371 -0.331887
v -19.201387 24.047371 -0.331884
v -19.201387 -24.047371 -0.331887
v -19.201387 24.047369 39.566914
v -19.201387 -24.047373 39.566914
v 20.223948 24.908199 -0.331884
v 20.223948 32.612270 -13.445070
v -20.223948 32.612270 -13.445070
v -20.223948 24.908199 -0.331884
v 19.201387 24.047371 -0.331884
v 20.223948 24.908199 -0.331884
v 19.201387 31.866772 -13.875484
v 20.223948 32.612270 -13.445070
v -19.201387 24.047371 -0.331884
v -19.201387 31.866772 -13.875484
v 19.201387 31.866772 -13.875484
v 19.201387 24.047371 -0.331884
v -20.223948 24.908199 -0.331884
v -19.201387 24.047371 -0.331884
v -20.223948 32.612270 -13.445070
v -19.201387 31.866772 -13.875484
v -20.223948 -24.908199 -0.331887
v -20.223948 -32.612270 -13.445072
v 20.223948 -32.612270 -13.445072
v 20.223948 -24.908199 -0.331887
v -19.201387 -24.047371 -0.331887
v -20.223948 -24.908199 -0.331887
v -19.201387 -31.866772 -13.875486
v -20.223948 -32.612270 -13.445072
v 19.201387 -24.047371 -0.331887
v 19.201387 -31.866772 -13.875486
v -19.201387 -31.866772 -13.875486
v -19.201387 -24.047371 -0.331887
v 20.223948 -24.908199 -0.331887
v 19.201387 -24.047371 -0.331887
v 20.223948 -32.612270 -13.445072
v 19.201387 -31.866772 -13.875486
v 20.223948 -24.908199 -0.331887
v 26.850740 -24.908199 -13.670218
v 26.850740 24.908199 -13.670216
v 20.223948 24.908199 -0.331884
v 19.201387 -24.047371 -0.331887
v 20.223948 -24.908199 -0.331887
v 25.965179 -24.047371 -14.181497
v 26.850740 -24.908199 -13.670218
v 19.201387 24.047371 -0.331884
v 25.965179 24.047371 -14.181495
v 25.965179 -24.047371 -14.181497
v 19.201387 -24.047371 -0.331887
v 20.223948 24.908199 -0.331884
v 19.201387 24.047371 -0.331884
v 26.850740 24.908199 -13.670216
v 25.965179 24.047371 -14.181495
v -20.223948 24.908199 -0.331884
v -26.850740 24.908199 -13.670216
v -26.850740 -24.908199 -13.670218
v -20.223948 -24.908199 -0.331887
v -19.201387 24.047371 -0.331884
v -20.223948 24.908199 -0.331884
v -25.965179 24.047371 -14.181495
v -26.850740 24.908199 -13.670216
v -19.201387 -24.047371 -0.331887
v -25.965179 -24.047371 -14.181497
v -25.965179 24.047371 -14.181495
v -19.201387 24.047371 -0.331884
v -20.223948 -24.908199 -0.331887
v -26.850740 -24.908199 -13.670218
v -25.965179 -24.047371 -14.181497
v -19.201387 -24.047371 -0.331887
vn 0.000000 1.000000 0.000000
vn 0.000000 1.000000 0.000000
vn 0.000000 0.964938 0.262480
vn 0.000000 0.964938 0.262480
vn 0.000000 0.000000 -1.000000
vn 0.000000 0.000000 -1.000000
vn 0.000000 0.000000 -1.000000
vn 0.000000 0.000000 -1.000000
vn -0.973540 -0.000000 0.228515
vn -1.000000 0.000000 0.000000
vn -1.000000 0.000000 0.000000
vn -0.973540 -0.000000 0.228515
vn 1.000000 0.000000 0.000000
vn 0.973540 -0.000000 0.228515
vn 1.000000 0.000000 0.000000
vn 0.973540 -0.000000 0.228515
vn 0.000000 0.000000 1.000000
vn 0.000000 0.000000 1.000000
vn 0.000000 0.000000 1.000000
vn 0.000000 0.000000 1.000000
vn 0.000000 -0.964938 0.262480
vn 0.000000 -0.964938 0.262480
vn 0.000000 -1.000000 0.000000
vn 0.000000 -1.000000 0.000000
vn 0.000000 0.500000 -0.866025
vn 0.000000 0.500000 -0.866025
vn 0.000000 0.500000 -0.866025
vn 0.000000 0.500000 -0.866025
vn 0.500000 0.000000 -0.866025
vn 0.500000 0.000000 -0.866025
vn 0.500000 0.000000 -0.866025
vn 0.500000 0.000000 -0.866025
vn 0.000000 -0.500000 -0.866025
vn 0.000000 -0.500000 -0.866025
vn 0.000000 -0.500000 -0.866025
vn 0.000000 -0.500000 -0.866025
vn -0.500000 0.000000 -0.866025
vn -0.500000 0.000000 -0.866025
vn -0.500000 0.000000 -0.866025
vn -0.500000 0.000000 -0.866025
vn 0.222966 -0.919550 -0.323595
vn 0.000000 -1.000000 0.000000
vn 0.000000 -1.000000 0.000000
vn -0.222966 -0.919550 -0.323595
vn -0.922139 -0.276353 -0.270720
vn -0.922139 0.276353 -0.270720
vn -1.000000 0.000000 0.000000
vn -1.000000 0.000000 0.000000
vn -0.222966 0.919550 -0.323595
vn 0.000000 1.000000 0.000000
vn 0.000000 1.000000 0.000000
vn 0.222966 0.919550 -0.323595
vn 0.922139 0.276353 -0.270720
vn 0.922139 -0.276353 -0.270720
vn 1.000000 0.000000 0.000000
vn 1.000000 0.000000 0.000000
vn 0.000000 0.964938 0.262480
vn 0.000000 0.862209 0.506553
vn 0.000000 0.862209 0.506553
vn 0.000000 0.964938 0.262480
vn 0.222966 -0.919550 -0.323595
vn 0.617305 -0.679848 -0.395907
vn 0.326555 -0.817769 -0.473936
vn 0.617305 -0.679848 -0.395907
vn -0.222966 -0.919550 -0.323595
vn -0.326555 -0.817769 -0.473936
vn 0.326555 -0.817769 -0.473936
vn 0.222966 -0.919550 -0.323595
vn -0.617305 -0.679848 -0.395907
vn -0.222966 -0.919550 -0.323595
vn -0.617305 -0.679848 -0.395907
vn -0.326555 -0.817769 -0.473936
vn 0.000000 -0.964938 0.262480
vn 0.000000 -0.862209 0.506553
vn 0.000000 -0.862209 0.506553
vn 0.000000 -0.964938 0.262480
vn -0.222966 0.919550 -0.323595
vn -0.617305 0.679848 -0.395907
vn -0.326555 0.817769 -0.473936
vn -0.617305 0.679848 -0.395907
vn 0.222966 0.919550 -0.323595
vn 0.326555 0.817769 -0.473936
vn -0.326555 0.817769 -0.473936
vn -0.222966 0.919550 -0.323595
vn 0.617305 0.679848 -0.395907
vn 0.222966 0.919550 -0.323595
vn 0.617305 0.679848 -0.395907
vn 0.326555 0.817769 -0.473936
vn 0.973540 -0.000000 0.228515
vn 0.895562 0.000000 0.444936
vn 0.895562 0.000000 0.444936
vn 0.973540 -0.000000 0.228515
vn -0.922139 -0.276353 -0.270720
vn -0.595859 -0.747546 -0.293472
vn -0.819136 -0.409751 -0.401399
vn -0.595859 -0.747546 -0.293472
vn -0.922139 0.276353 -0.270720
vn -0.819136 0.409751 -0.401399
vn -0.819136 -0.409751 -0.401399
vn -0.922139 -0.276353 -0.270720
vn -0.595859 0.747547 -0.293472
vn -0.922139 0.276353 -0.270720
vn -0.595859 0.747547 -0.293472
vn -0.819136 0.409751 -0.401399
vn -0.973540 -0.000000 0.228515
vn -0.895562 0.000000 0.444936
vn -0.895562 0.000000 0.444936
vn -0.973540 -0.000000 0.228515
vn 0.922139 0.276353 -0.270720
vn 0.595859 0.747547 -0.293472
vn 0.819136 0.409751 -0.401399
vn 0.595859 0.747547 -0.293472
vn 0.922139 -0.276353 -0.270720
vn 0.819136 -0.409751 -0.401399
vn 0.819136 0.409751 -0.401399
vn 0.922139 0.276353 -0.270720
vn 0.595859 -0.747546 -0.293472
vn 0.595859 -0.747546 -0.293472
vn 0.819136 -0.409751 -0.401399
vn 0.922139 -0.276353 -0.270720
vt 0.360616 -0.043033
vt 0.031282 -0.043033
vt 0.031282 -0.375111
vt 0.360616 -0.375111
vt 0.928990 -0.962273
vt 0.500510 -0.962273
vt 0.928990 -0.434550
vt 0.500510 -0.434550
vt 0.766230 -0.375111
vt 0.766230 -0.043033
vt 0.360616 -0.043033
vt 0.360616 -0.375111
vt 0.766230 -0.043033
vt 0.766230 -0.375111
vt 0.360616 -0.043033
vt 0.360616 -0.375111
vt 0.500510 -0.962273
vt 0.928990 -0.962273
vt 0.928990 -0.434550
vt 0.500510 -0.434550
vt 0.360616 -0.375111
vt 0.031282 -0.375111
vt 0.360616 -0.043033
vt 0.031282 -0.043033
vt 0.017832 -0.753614
vt 0.026227 -0.760653
vt 0.341515 -0.760653
vt 0.349910 -0.753614
vt 0.008892 -0.812581
vt 0.417885 -0.812581
vt 0.015959 -0.820976
vt 0.410818 -0.820976
vt 0.017832 -0.753614
vt 0.026227 -0.760653
vt 0.341515 -0.760653
vt 0.349910 -0.753614
vt 0.008892 -0.812581
vt 0.417885 -0.812581
vt 0.015959 -0.820976
vt 0.410818 -0.820976
vt 0.360616 -0.375111
vt 0.360616 -0.043033
vt 0.031282 -0.043033
vt 0.031282 -0.375111
vt 0.766230 -0.375111
vt 0.360616 -0.375111
vt 0.766230 -0.043033
vt 0.360616 -0.043033
vt 0.360616 -0.375111
vt 0.360616 -0.043033
vt 0.031282 -0.043033
vt 0.031282 -0.375111
vt 0.766230 -0.375111
vt 0.360616 -0.375111
vt 0.766230 -0.043033
vt 0.360616 -0.043033
vt 0.022486 -0.583674
vt 0.022486 -0.708110
vt 0.354564 -0.708110
vt 0.354564 -0.583674
vt 0.836529 -0.041210
vt 0.848349 -0.041483
vt 0.877649 -0.173248
vt 0.888863 -0.169666
vt 0.022486 -0.583674
vt 0.022486 -0.708110
vt 0.354564 -0.708110
vt 0.354564 -0.583674
vt 0.896052 -0.205762
vt 0.907873 -0.205488
vt 0.855538 -0.333944
vt 0.866753 -0.337526
vt 0.022486 -0.583674
vt 0.022486 -0.708110
vt 0.354564 -0.708110
vt 0.354564 -0.583674
vt 0.885965 -0.038438
vt 0.897786 -0.038711
vt 0.927086 -0.170476
vt 0.938300 -0.166893
vt 0.022486 -0.583674
vt 0.022486 -0.708110
vt 0.354564 -0.708110
vt 0.354564 -0.583674
vt 0.849204 -0.189611
vt 0.861025 -0.189338
vt 0.808690 -0.317794
vt 0.819904 -0.321376
vt 0.018161 -0.438639
vt 0.018161 -0.560917
vt 0.427154 -0.560917
vt 0.427154 -0.438639
vt 0.901134 -0.034751
vt 0.913019 -0.034361
vt 0.952022 -0.163163
vt 0.962876 -0.158175
vt 0.018161 -0.438639
vt 0.018161 -0.560917
vt 0.427154 -0.560917
vt 0.427154 -0.438639
vt 0.927977 -0.215098
vt 0.939862 -0.215489
vt 0.878119 -0.338913
vt 0.888973 -0.343900
vt 0.018161 -0.438639
vt 0.018161 -0.560917
vt 0.427154 -0.560917
vt 0.427154 -0.438639
vt 0.855074 -0.042125
vt 0.866959 -0.041734
vt 0.905962 -0.170536
vt 0.916816 -0.165549
vt 0.018161 -0.438639
vt 0.018161 -0.560917
vt 0.427154 -0.560917
vt 0.427154 -0.438639
vt 0.878721 -0.199280
vt 0.828863 -0.323095
vt 0.839717 -0.328082
vt 0.890606 -0.199671
g Body.Box.smd.mesh_0
f 2/2/2 3/3/3 4/4/4
f 1/1/1 2/2/2 4/4/4
f 7/7/7 8/8/8 6/6/6
f 5/5/5 7/7/7 6/6/6
f 10/10/10 11/11/11 12/12/12
f 9/9/9 10/10/10 12/12/12
f 15/15/15 16/16/16 14/14/14
f 13/13/13 15/15/15 14/14/14
f 18/18/18 19/19/19 20/20/20
f 17/17/17 18/18/18 20/20/20
f 23/23/23 24/24/24 22/22/22
f 21/21/21 23/23/23 22/22/22
f 26/26/26 27/27/27 28/28/28
f 25/25/25 26/26/26 28/28/28
f 31/31/31 32/32/32 30/30/30
f 29/29/29 31/31/31 30/30/30
f 34/34/34 35/35/35 36/36/36
f 33/33/33 34/34/34 36/36/36
f 39/39/39 40/40/40 38/38/38
f 37/37/37 39/39/39 38/38/38
f 42/42/42 43/43/43 44/44/44
f 41/41/41 42/42/42 44/44/44
f 47/47/47 48/48/48 46/46/46
f 45/45/45 47/47/47 46/46/46
f 50/50/50 51/51/51 52/52/52
f 49/49/49 50/50/50 52/52/52
f 55/55/55 56/56/56 54/54/54
f 53/53/53 55/55/55 54/54/54
f 58/58/58 59/59/59 60/60/60
f 57/57/57 58/58/58 60/60/60
f 63/63/63 64/64/64 62/62/62
f 61/61/61 63/63/63 62/62/62
f 66/66/66 67/67/67 68/68/68
f 65/65/65 66/66/66 68/68/68
f 71/71/71 72/72/72 70/70/70
f 69/69/69 71/71/71 70/70/70
f 74/74/74 75/75/75 76/76/76
f 73/73/73 74/74/74 76/76/76
f 79/79/79 80/80/80 78/78/78
f 77/77/77 79/79/79 78/78/78
f 82/82/82 83/83/83 84/84/84
f 81/81/81 82/82/82 84/84/84
f 87/87/87 88/88/88 86/86/86
f 85/85/85 87/87/87 86/86/86
f 90/90/90 91/91/91 92/92/92
f 89/89/89 90/90/90 92/92/92
f 95/95/95 96/96/96 94/94/94
f 93/93/93 95/95/95 94/94/94
f 98/98/98 99/99/99 100/100/100
f 97/97/97 98/98/98 100/100/100
f 103/103/103 104/104/104 102/102/102
f 101/101/101 103/103/103 102/102/102
f 106/106/106 107/107/107 108/108/108
f 105/105/105 106/106/106 108/108/108
f 111/111/111 112/112/112 110/110/110
f 109/109/109 111/111/111 110/110/110
f 114/114/114 115/115/115 116/116/116
f 113/113/113 114/114/114 116/116/116
f 118/118/118 119/119/119 120/120/120
f 117/117/117 118/118/118 120/120/120
