# Blender v2.79 (sub 0) OBJ File: ''
# www.blender.org
mtllib frame.mtl
o klienerglasses_reference.001
v -2.810702 -0.826859 -3.026214
v -2.810705 -0.903259 -2.933639
v -2.937528 -0.903259 -2.933643
v -2.937528 -0.826859 -3.026214
v -2.972298 0.488098 0.450524
v -2.693106 0.459145 2.557865
v -2.788460 0.458298 2.508595
v -2.798095 0.458183 2.503501
v -3.096446 0.488098 0.426012
v -3.162296 0.462692 -1.062207
v -3.289117 0.462692 -1.063423
v -3.170310 0.429825 -1.514610
v -3.297134 0.429825 -1.514686
v -3.142955 0.291039 -1.907122
v -3.269781 0.291039 -1.907124
v -3.092259 0.101120 -2.130958
v -3.219081 0.101120 -2.130958
v -3.001383 -0.167313 -2.337491
v -3.128208 -0.167313 -2.337493
v -2.870986 -0.466736 -2.500680
v -2.997807 -0.466736 -2.500681
v -2.810707 -0.760262 -2.633047
v -2.937528 -0.760262 -2.633046
v -2.810702 -0.857582 -2.769606
v -2.937529 -0.857582 -2.769609
v 2.768976 0.457375 2.455831
v 2.778434 0.717857 2.464273
v 3.003500 0.488098 0.435446
v 3.006541 0.735031 0.414666
v 3.134748 0.693069 -1.070308
v 3.134748 0.462692 -1.062366
v 3.170312 0.648506 -1.642643
v 3.170310 0.429825 -1.514644
v 3.168589 0.291039 -1.907126
v 3.168587 0.525253 -2.009605
v 3.129493 0.101120 -2.130956
v 3.115262 0.350151 -2.294606
v 3.035349 0.117546 -2.510760
v 2.993449 -0.167313 -2.337490
v 2.957882 -0.147552 -2.689907
v 2.893818 -0.466736 -2.500680
v 2.839214 -0.583603 -2.944863
v 2.839213 -0.760262 -2.633047
v 2.807458 -0.865059 -2.979927
v 2.807460 -0.857582 -2.769605
v 2.882596 0.716911 2.409069
v 2.873142 0.456429 2.400142
v 3.132679 0.488098 0.411394
v 3.133640 0.735031 0.407726
v 3.261569 0.462692 -1.063601
v 3.261570 0.693069 -1.071009
v 3.297134 0.648506 -1.642641
v 3.297133 0.429825 -1.514693
v 3.295408 0.525253 -2.009603
v 3.295412 0.291039 -1.907123
v 3.242086 0.350151 -2.294548
v 3.256311 0.101120 -2.130957
v 3.162171 0.117546 -2.511335
v 3.120275 -0.167313 -2.337492
v 3.084708 -0.147552 -2.690581
v 3.020639 -0.466736 -2.500680
v 2.966038 -0.583603 -2.944864
v 2.966037 -0.760262 -2.633047
v 2.934281 -0.857582 -2.769607
v 2.934283 -0.865059 -2.979925
v -2.831475 -0.583603 -2.944863
v -2.903617 -0.147552 -2.689153
v -2.994491 0.117554 -2.509543
v -3.092257 0.350151 -2.294410
v -3.142956 0.525246 -2.009605
v -3.170310 0.648506 -1.642641
v -3.162296 0.693069 -1.070214
v -2.968306 0.735031 0.420547
v -2.702242 0.719635 2.566220
v -2.958300 -0.583603 -2.944863
v -3.030439 -0.147552 -2.689952
v -3.121315 0.117554 -2.510921
v -3.219081 0.350151 -2.294635
v -3.269777 0.525246 -2.009608
v -3.297133 0.648506 -1.642639
v -3.289117 0.693069 -1.070910
v -3.094446 0.735031 0.411521
v -2.807336 0.718719 2.512864
vt 0.000579 -0.864883
vt 0.007823 -0.888856
vt 0.011066 -0.888856
vt 0.003822 -0.864883
vt 0.588940 -0.232170
vt 0.963939 -0.126290
vt 0.958282 -0.129457
vt 0.957673 -0.129822
vt 0.592183 -0.232170
vt 0.238576 -0.364112
vt 0.241819 -0.364112
vt 0.163221 -0.409726
vt 0.166465 -0.409726
vt 0.097697 -0.519553
vt 0.100940 -0.519553
vt 0.061077 -0.652465
vt 0.064320 -0.652465
vt 0.037225 -0.718047
vt 0.040468 -0.718047
vt 0.023440 -0.778291
vt 0.026683 -0.778291
vt 0.029515 -0.855677
vt 0.032758 -0.855677
vt 0.020590 -0.873363
vt 0.023833 -0.873363
vt 0.963423 -0.136270
vt 0.961618 0.029740
vt 0.592585 -0.235398
vt 0.592674 -0.077509
vt 0.229849 -0.221409
vt 0.233971 -0.367340
vt 0.132430 -0.281318
vt 0.157502 -0.412954
vt 0.092720 -0.522781
vt 0.071758 -0.379883
vt 0.058397 -0.655693
vt 0.027261 -0.506751
vt 0.006167 -0.656448
vt 0.040349 -0.721274
vt 0.014921 -0.725016
vt 0.032445 -0.781518
vt 0.016311 -0.783501
vt 0.041459 -0.858905
vt 0.012119 -0.870416
vt 0.033345 -0.876590
vt 0.949727 0.026131
vt 0.951532 -0.139879
vt 0.589342 -0.235398
vt 0.589431 -0.077509
vt 0.230728 -0.367340
vt 0.226606 -0.221409
vt 0.129187 -0.281318
vt 0.154259 -0.412954
vt 0.068515 -0.379883
vt 0.089477 -0.522781
vt 0.024018 -0.506751
vt 0.055154 -0.655693
vt 0.002924 -0.656448
vt 0.037105 -0.721275
vt 0.011678 -0.725016
vt 0.029202 -0.781519
vt 0.013068 -0.783501
vt 0.038215 -0.858905
vt 0.030101 -0.876590
vt 0.008875 -0.870416
vt 0.004899 -0.780273
vt 0.008388 -0.721787
vt 0.003939 -0.653220
vt 0.029577 -0.503523
vt 0.076734 -0.376655
vt 0.138150 -0.278090
vt 0.234454 -0.218181
vt 0.589029 -0.074281
vt 0.962638 0.039732
vt 0.008142 -0.780273
vt 0.011631 -0.721787
vt 0.007183 -0.653219
vt 0.032820 -0.503524
vt 0.079977 -0.376655
vt 0.141394 -0.278090
vt 0.237698 -0.218182
vt 0.592272 -0.074281
vt 0.956408 0.036244
vn 0.6289 -0.1987 -0.7516
vn 0.6358 -0.7545 -0.1623
vn -0.5854 -0.7913 -0.1767
vn -0.5681 -0.2405 -0.7870
vn 0.6943 -0.7142 -0.0881
vn 0.8632 -0.4901 -0.1211
vn 0.0181 -0.9997 -0.0164
vn -0.5572 -0.8276 0.0681
vn -0.7107 -0.6966 0.0979
vn 0.6983 -0.7155 -0.0190
vn -0.7233 -0.6852 0.0851
vn 0.7305 -0.6656 0.1525
vn -0.7445 -0.6561 0.1233
vn 0.7308 -0.5392 0.4185
vn -0.7582 -0.6105 0.2289
vn 0.6769 -0.3695 0.6366
vn -0.7423 -0.5787 0.3377
vn 0.6336 -0.2356 0.7369
vn -0.7482 -0.5359 0.3912
vn 0.7071 -0.1578 0.6893
vn -0.6849 -0.4498 0.5732
vn 0.6951 -0.4097 0.5907
vn -0.5102 -0.5757 0.6390
vn 0.6913 -0.6523 0.3108
vn -0.5959 -0.7302 0.3342
vn -0.8648 -0.4903 -0.1078
vn -0.8255 0.5571 -0.0902
vn -0.7060 -0.7045 -0.0721
vn -0.6953 0.7149 -0.0741
vn -0.6964 0.7121 -0.0891
vn -0.7086 -0.7052 -0.0238
vn -0.6741 0.7204 -0.1633
vn -0.7224 -0.6833 0.1057
vn -0.7306 -0.5597 0.3910
vn -0.6647 0.6952 -0.2738
vn -0.6605 -0.3815 0.6466
vn -0.6781 0.6395 -0.3622
vn -0.6729 0.5936 -0.4414
vn -0.7011 -0.1744 0.6914
vn -0.6656 0.5282 -0.5272
vn -0.7157 -0.1461 0.6829
vn -0.6754 0.3252 -0.6619
vn -0.6606 -0.4082 0.6301
vn -0.6178 -0.5227 -0.5874
vn -0.7597 -0.5946 0.2632
vn 0.5919 0.8016 0.0840
vn 0.5606 -0.8258 0.0608
vn 0.7102 -0.6995 0.0784
vn 0.7043 0.7068 0.0665
vn 0.7137 -0.6950 0.0867
vn 0.7029 0.7112 0.0137
vn 0.6862 0.7159 -0.1290
vn 0.7518 -0.6366 0.1720
vn 0.6969 0.6259 -0.3500
vn 0.7652 -0.5891 0.2598
vn 0.6556 0.5022 -0.5638
vn 0.7534 -0.5718 0.3246
vn 0.6534 0.3132 -0.6892
vn 0.6767 -0.5700 0.4659
vn 0.6916 0.2274 -0.6855
vn 0.6747 -0.4666 0.5718
vn 0.6416 0.1496 -0.7523
vn 0.6369 -0.5586 0.5313
vn 0.5808 -0.7850 0.2153
vn 0.5355 -0.5803 -0.6135
vn 0.6783 0.3672 -0.6364
vn 0.7162 0.5168 -0.4690
vn 0.7078 0.5738 -0.4120
vn 0.6556 0.6616 -0.3639
vn 0.6699 0.6984 -0.2520
vn 0.6656 0.7353 -0.1274
vn 0.6859 0.7224 -0.0872
vn 0.7085 0.6994 -0.0942
vn 0.8239 0.5570 -0.1045
vn -0.6660 0.2491 -0.7031
vn -0.6347 0.2637 -0.7263
vn -0.6247 0.3357 -0.7049
vn -0.6718 0.4760 -0.5675
vn -0.6885 0.6219 -0.3731
vn -0.6930 0.7017 -0.1655
vn -0.7125 0.7015 0.0150
vn -0.6925 0.7166 0.0831
vn -0.5900 0.8024 0.0898
usemtl mouth
s 1
f 1/1/1 2/2/2 3/3/3
f 3/3/3 4/4/4 1/1/1
f 5/5/5 6/6/6 7/7/7
f 8/8/8 9/9/9 7/7/7
f 7/7/7 9/9/9 5/5/5
f 10/10/10 5/5/5 9/9/9
f 9/9/9 11/11/11 10/10/10
f 12/12/12 10/10/10 11/11/11
f 11/11/11 13/13/13 12/12/12
f 14/14/14 12/12/12 13/13/13
f 13/13/13 15/15/15 14/14/14
f 16/16/16 14/14/14 15/15/15
f 15/15/15 17/17/17 16/16/16
f 18/18/18 16/16/16 17/17/17
f 17/17/17 19/19/19 18/18/18
f 20/20/20 18/18/18 19/19/19
f 19/19/19 21/21/21 20/20/20
f 22/22/22 20/20/20 21/21/21
f 21/21/21 23/23/23 22/22/22
f 24/24/24 22/22/22 23/23/23
f 23/23/23 25/25/25 24/24/24
f 2/2/2 24/24/24 25/25/25
f 25/25/25 3/3/3 2/2/2
f 26/26/26 27/27/27 28/28/28
f 28/28/28 27/27/27 29/29/29
f 29/29/29 30/30/30 28/28/28
f 28/28/28 30/30/30 31/31/31
f 31/31/31 30/30/30 32/32/32
f 32/32/32 33/33/33 31/31/31
f 32/32/32 34/34/34 33/33/33
f 32/32/32 35/35/35 34/34/34
f 34/34/34 35/35/35 36/36/36
f 36/36/36 35/35/35 37/37/37
f 37/37/37 38/38/38 36/36/36
f 36/36/36 38/38/38 39/39/39
f 39/39/39 38/38/38 40/40/40
f 40/40/40 41/41/41 39/39/39
f 40/40/40 42/42/42 41/41/41
f 41/41/41 42/42/42 43/43/43
f 43/43/43 42/42/42 44/44/44
f 44/44/44 45/45/45 43/43/43
f 46/46/46 47/47/47 48/48/48
f 48/48/48 49/49/49 46/46/46
f 50/50/50 49/49/49 48/48/48
f 50/50/50 51/51/51 49/49/49
f 50/50/50 52/52/52 51/51/51
f 53/53/53 52/52/52 50/50/50
f 53/53/53 54/54/54 52/52/52
f 55/55/55 54/54/54 53/53/53
f 55/55/55 56/56/56 54/54/54
f 57/57/57 56/56/56 55/55/55
f 57/57/57 58/58/58 56/56/56
f 58/58/58 57/57/57 59/59/59
f 59/59/59 60/60/60 58/58/58
f 60/60/60 59/59/59 61/61/61
f 61/61/61 62/62/62 60/60/60
f 62/62/62 61/61/61 63/63/63
f 62/62/62 63/63/63 64/64/64
f 65/65/65 62/62/62 64/64/64
f 66/66/66 2/2/2 1/1/1
f 66/66/66 24/24/24 2/2/2
f 66/66/66 22/22/22 24/24/24
f 66/66/66 20/20/20 22/22/22
f 67/67/67 20/20/20 66/66/66
f 67/67/67 18/18/18 20/20/20
f 68/68/68 18/18/18 67/67/67
f 68/68/68 16/16/16 18/18/18
f 69/69/69 16/16/16 68/68/68
f 69/69/69 14/14/14 16/16/16
f 70/70/70 14/14/14 69/69/69
f 12/12/12 14/14/14 70/70/70
f 71/71/71 12/12/12 70/70/70
f 71/71/71 10/10/10 12/12/12
f 71/71/71 72/72/72 10/10/10
f 73/73/73 10/10/10 72/72/72
f 10/10/10 73/73/73 5/5/5
f 5/5/5 73/73/73 74/74/74
f 74/74/74 6/6/6 5/5/5
f 26/26/26 28/28/28 47/47/47
f 48/48/48 47/47/47 28/28/28
f 50/50/50 48/48/48 28/28/28
f 28/28/28 31/31/31 50/50/50
f 53/53/53 50/50/50 31/31/31
f 31/31/31 33/33/33 53/53/53
f 55/55/55 53/53/53 33/33/33
f 33/33/33 34/34/34 55/55/55
f 57/57/57 55/55/55 34/34/34
f 34/34/34 36/36/36 57/57/57
f 59/59/59 57/57/57 36/36/36
f 36/36/36 39/39/39 59/59/59
f 61/61/61 59/59/59 39/39/39
f 39/39/39 41/41/41 61/61/61
f 63/63/63 61/61/61 41/41/41
f 41/41/41 43/43/43 63/63/63
f 64/64/64 63/63/63 43/43/43
f 43/43/43 45/45/45 64/64/64
f 65/65/65 64/64/64 45/45/45
f 45/45/45 44/44/44 65/65/65
f 21/21/21 25/25/25 23/23/23
f 21/21/21 3/3/3 25/25/25
f 3/3/3 75/75/75 4/4/4
f 21/21/21 75/75/75 3/3/3
f 21/21/21 76/76/76 75/75/75
f 21/21/21 19/19/19 76/76/76
f 17/17/17 76/76/76 19/19/19
f 17/17/17 77/77/77 76/76/76
f 17/17/17 78/78/78 77/77/77
f 17/17/17 79/79/79 78/78/78
f 15/15/15 79/79/79 17/17/17
f 15/15/15 80/80/80 79/79/79
f 13/13/13 80/80/80 15/15/15
f 13/13/13 81/81/81 80/80/80
f 11/11/11 81/81/81 13/13/13
f 11/11/11 82/82/82 81/81/81
f 11/11/11 9/9/9 82/82/82
f 9/9/9 83/83/83 82/82/82
f 8/8/8 83/83/83 9/9/9
f 62/62/62 65/65/65 44/44/44
f 44/44/44 42/42/42 62/62/62
f 60/60/60 62/62/62 42/42/42
f 42/42/42 40/40/40 60/60/60
f 58/58/58 60/60/60 40/40/40
f 40/40/40 38/38/38 58/58/58
f 56/56/56 58/58/58 38/38/38
f 38/38/38 37/37/37 56/56/56
f 54/54/54 56/56/56 37/37/37
f 37/37/37 35/35/35 54/54/54
f 52/52/52 54/54/54 35/35/35
f 35/35/35 32/32/32 52/52/52
f 51/51/51 52/52/52 32/32/32
f 32/32/32 30/30/30 51/51/51
f 49/49/49 51/51/51 30/30/30
f 30/30/30 29/29/29 49/49/49
f 29/29/29 27/27/27 49/49/49
f 46/46/46 49/49/49 27/27/27
f 66/66/66 1/1/1 4/4/4
f 4/4/4 75/75/75 66/66/66
f 67/67/67 66/66/66 75/75/75
f 75/75/75 76/76/76 67/67/67
f 68/68/68 67/67/67 76/76/76
f 76/76/76 77/77/77 68/68/68
f 69/69/69 68/68/68 77/77/77
f 77/77/77 78/78/78 69/69/69
f 70/70/70 69/69/69 78/78/78
f 78/78/78 79/79/79 70/70/70
f 71/71/71 70/70/70 79/79/79
f 79/79/79 80/80/80 71/71/71
f 72/72/72 71/71/71 80/80/80
f 80/80/80 81/81/81 72/72/72
f 73/73/73 72/72/72 81/81/81
f 81/81/81 82/82/82 73/73/73
f 82/82/82 83/83/83 73/73/73
f 74/74/74 73/73/73 83/83/83
