# Blender v2.78 (sub 0) OBJ File: ''
# www.blender.org
mtllib 2.mtl
o Mesh3_skpB7F8_1_Model.001
v -9.130840 2.257262 -11.644800
v -9.665490 0.762032 -7.529350
v -8.697410 3.137581 -5.014530
v -10.363300 -1.171198 -9.739450
v -10.671200 -2.356529 -4.539620
v -9.842010 -0.365749 -3.931370
v -9.641660 0.749787 -7.600780
v -9.464140 0.386821 -15.770300
v -7.383430 4.756073 -16.566200
v -8.331000 4.504321 -6.842399
v -7.063450 5.524810 -2.929559
v -7.851670 4.320311 -2.912969
v -9.007600 2.306731 -2.868860
v -10.059100 -0.306018 -3.847730
v -8.386710 2.399950 -0.281027
v -9.567030 -0.158234 -0.141972
v -10.042800 -2.343250 -0.109771
v -9.016900 -1.929061 4.801499
v -8.360560 -0.049100 2.774350
v -9.124710 -0.280879 -0.313062
v -8.676350 2.217120 -2.962729
v -8.517290 3.155601 -4.936540
v -8.114350 4.448481 -6.871229
v -6.813350 5.534171 -2.848449
v -5.912260 7.621390 -3.604319
v -7.152510 6.736402 -9.092729
v -7.335390 4.743443 -16.573299
v -8.980840 2.222642 -11.716900
v -7.698830 3.177144 -22.419500
v -6.128240 6.792883 -20.303099
v -7.241170 6.759881 -9.074789
v -6.001960 7.645391 -3.582979
v -4.189470 8.209020 1.100161
v -3.238010 9.785450 1.058992
v -1.703170 9.674009 4.561421
v -2.536130 8.343589 4.510771
v -3.476940 6.783819 4.451331
v -1.627120 7.127648 7.731871
v -1.679690 6.936899 7.722231
v -3.552920 6.544959 4.425951
v -5.703860 5.797160 1.034801
v -7.529870 4.156740 -1.069599
v -7.347520 3.760260 0.123510
v -7.041580 2.625260 3.134310
v -8.511520 0.093910 3.894530
v -6.567020 1.582778 11.676000
v -7.649950 0.418972 9.545810
v -7.802200 -0.510712 12.503600
v -7.305480 0.603135 12.487000
v -7.039300 0.917251 16.786600
v -6.926150 3.069979 2.347620
v -6.429890 4.355229 1.655051
v -6.376410 4.336520 1.553261
v -6.497890 3.969880 1.999751
v -7.139880 2.669470 2.065161
v -7.985640 2.291820 -0.379494
v -7.159330 3.706530 0.008796
v -7.233030 4.149400 -1.085379
v -7.092720 4.724210 -1.990719
v -5.376670 5.993730 1.265471
v -5.141010 6.322820 1.137671
v -4.105760 8.186320 1.072441
v -5.174570 9.353791 -4.214949
v -6.303980 8.567182 -10.922499
v -5.684710 5.913154 -27.462997
v -2.463700 8.323939 4.490652
v -0.863859 8.369149 7.681781
v -3.359250 6.751789 4.415901
v -1.530850 7.101119 7.702791
v 0.038074 7.267508 10.641301
v 0.523655 8.302858 10.548001
v -0.291952 9.459159 7.667771
v -0.923009 8.385449 7.699731
v 0.942846 9.190318 10.470302
v 0.478832 8.315298 10.561901
v -0.034916 7.287718 10.663701
v 1.464490 7.448818 13.513201
v 1.377970 7.310997 13.417401
v -0.073548 7.131058 10.666701
v 1.513640 7.435178 13.498001
v 2.400720 7.553728 15.345601
v 2.844070 7.733697 16.105902
v 3.070590 8.244417 16.076902
v 1.833640 8.236788 13.350001
v 2.112710 8.921248 13.226202
v 3.219080 8.667737 15.956501
v 1.803420 8.245168 13.359301
v 2.819490 7.740517 16.113503
v 3.745160 7.985067 18.016003
v 3.055470 8.248607 16.081602
v 3.919040 8.274627 18.118603
v 3.985030 8.513297 18.007902
vt 230.9530 844.3460
vt 181.1580 824.8680
vt 150.5240 855.8130
vt 204.4930 817.3480
vt 177.6970 842.2530
vt 227.5760 861.5150
vt 209.5550 829.1450
vt 146.6060 813.9700
vt 182.6160 853.8950
vt -151.0210 779.4140
vt -213.8900 794.9210
vt -143.3170 805.4590
vt -217.0480 838.3210
vt -190.7610 862.8100
vt -146.4360 848.5890
vt -192.2630 781.3920
vt -265.7450 801.8780
vt -166.7140 806.6500
vt 258.3030 853.1570
vt 184.6450 833.3150
vt 208.6690 876.9770
vt 240.3370 776.5950
vt 191.2170 801.4570
vt 253.0330 834.6710
vt 203.4250 757.2520
vt 146.2240 788.1130
vt 264.6350 791.5710
vt 175.8400 922.0870
vt 234.2780 893.6370
vt 153.8030 904.7820
vt 215.7680 822.9760
vt 194.8170 804.3720
vt 166.3160 836.8670
vt 156.1040 712.2960
vt 130.2980 729.4300
vt 130.1750 746.8790
vt 167.7950 760.5200
vt 142.1610 748.9080
vt 141.5990 777.0500
vt 123.5460 842.6200
vt 149.5180 853.4570
vt 180.1090 822.4710
vt 135.3850 807.6660
vt 123.4070 841.7650
vt 179.9660 821.6050
vt 179.4080 899.3430
vt 193.8150 866.1970
vt 147.1520 900.5250
vt 164.7110 778.2060
vt 119.4060 780.1810
vt 119.4590 814.3720
vt 122.3660 878.9970
vt 122.0430 906.1040
vt 167.3540 904.2710
vt 139.9170 881.3550
vt 79.1109 886.4920
vt 139.2220 908.4540
vt -72.4329 732.5550
vt -133.1920 726.8980
vt -95.3872 758.2340
vt -145.5880 763.6540
vt -145.6850 791.1280
vt -107.1540 794.2150
vt -126.8070 760.4460
vt -181.0390 760.2690
vt -127.6990 787.9060
vt 181.2070 865.2480
vt 126.9740 865.4140
vt 171.8660 890.8590
vt 135.7140 830.7760
vt 127.4660 856.7590
vt 172.1720 870.2930
vt -193.9710 817.1000
vt -184.8530 842.6840
vt -140.1430 843.7740
vt -184.7270 831.7350
vt -170.5620 865.1570
vt -140.0170 832.8330
vt -152.0490 843.9120
vt -165.3120 810.1220
vt -175.6030 856.1900
vt -152.2400 813.7020
vt -196.4640 828.2350
vt -163.3490 859.5790
vt -185.0000 872.6960
vt -161.8830 855.8150
vt -194.9320 824.4030
vt -211.6230 796.0630
vt -160.9060 811.1370
vt -189.3260 778.1110
vt -164.8180 848.8120
vt -215.6570 834.1490
vt -171.7990 877.0000
vt -203.8460 798.5120
vt -228.9450 830.1370
vt -160.9950 842.3700
vt -178.3350 920.5470
vt -150.6640 891.1470
vt -268.6370 894.9370
vt -152.1350 792.8320
vt -210.0770 762.3230
vt -270.1000 796.8750
vt -224.9010 830.6490
vt -166.2950 859.8630
vt -174.9170 811.3190
vt -266.7240 843.4610
vt -217.8420 866.9990
vt -167.6880 848.1150
vt -201.3470 793.2370
vt -249.7140 768.6570
vt -261.8240 826.9880
vt -258.3450 768.1300
vt -340.1670 805.5810
vt -269.7440 826.6040
vt 338.5910 812.4100
vt 256.6820 775.1510
vt 268.0920 833.4930
vt 337.4350 803.3350
vt 266.9720 824.5400
vt 313.2810 851.8930
vt 307.2290 873.1300
vt 260.6670 846.2100
vt 170.4620 872.6940
vt 145.2290 866.1370
vt 173.3330 895.5360
vt 263.6450 869.4180
vt 208.6890 754.5930
vt 159.4500 769.2200
vt 233.3670 786.9230
vt 155.0810 818.5220
vt 161.1670 847.7100
vt 229.1630 835.5210
vt 134.8800 852.9180
vt 195.6240 845.0540
vt 191.9370 815.4670
vt 134.5940 845.5700
vt 131.6210 867.6950
vt 195.3320 837.6590
vt 152.4730 889.1480
vt 156.8200 867.2510
vt 106.1280 887.6000
vt 157.2280 871.0220
vt 111.2950 872.8850
vt 106.5120 891.3110
vt 116.8530 862.3270
vt 111.4190 883.7400
vt 157.3530 881.8920
vt 122.6490 869.2210
vt 77.0512 873.9220
vt 116.8840 890.5460
vt 81.7291 1013.7900
vt 127.3700 1009.5200
vt 82.1338 1011.4200
vt 127.2920 1005.2500
vt 127.9990 1002.2800
vt 82.0563 1007.1500
vt 132.4360 1009.0300
vt 181.7980 996.7780
vt 133.1630 1006.0600
vt 167.6420 836.8600
vt 118.6580 850.5420
vt 159.0610 870.3060
vt 138.4120 805.5750
vt 132.3730 839.5710
vt 189.1750 801.7360
vt 136.8760 744.5280
vt 187.6220 740.4820
vt 167.5680 720.1590
vt 175.7920 770.7440
vt 177.7630 753.4060
vt 155.1170 751.0520
vt 178.8180 765.4140
vt 153.5970 791.1680
vt 176.2520 793.4450
vt 177.1650 760.7010
vt 144.9140 762.0030
vt 152.0310 786.5390
vt 177.2150 751.7580
vt 168.2440 771.1000
vt 182.5740 776.7380
vt 173.3210 745.2000
vt 128.8600 748.4180
vt 164.5280 764.6240
vt 131.1760 838.3020
vt 175.6520 835.3050
vt 178.9380 801.2720
vt 96.3424 699.9600
vt 101.4940 736.2550
vt 146.8780 696.3450
vt 80.5997 741.1520
vt 73.7817 705.1340
vt -22.8048 726.3190
vt 68.4173 646.5510
vt -0.8158 651.4150
vt -27.9232 668.8280
vt -33.5234 734.5130
vt 1.8484 747.3440
vt 71.1070 742.8580
vt -41.9125 788.5930
vt -42.2466 803.3740
vt -6.3653 800.9300
vt -109.8530 808.3900
vt -57.6652 804.2210
vt -57.6899 789.4370
vt -53.7515 653.0720
vt -63.5239 638.1640
vt -115.6600 642.9440
vt -38.8745 627.1080
vt -12.2396 608.9810
vt -48.0894 611.8490
vt 55.6490 683.8840
vt 117.6020 674.0370
vt -27.6418 631.9220
vt 83.1446 954.4900
vt 30.4648 937.0230
vt -64.0197 919.6730
vt 56.1802 848.6140
vt -38.1973 866.5360
vt 66.4869 874.1760
vt 91.4520 825.3570
vt 100.7190 851.3140
vt 151.2800 848.0790
vt -76.3433 817.5560
vt 27.1808 803.5810
vt -58.9658 756.5050
vt -88.1858 822.1220
vt -78.8953 816.1530
vt -61.7906 755.0250
vt -90.8267 857.8030
vt -73.7492 834.9010
vt -83.0916 840.7880
vt 128.1310 752.6620
vt 142.6440 777.2700
vt 163.8270 768.8060
vt 180.4540 791.7040
vt 166.0940 786.1420
vt 144.8650 794.4890
vt 148.4950 796.1030
vt 179.9470 772.7220
vt 144.3620 775.5510
vt 53.3603 980.3750
vt 64.2579 962.4670
vt 62.8650 962.2350
vt 46.1204 1070.2400
vt 50.2445 1065.4500
vt 44.7275 1070.0100
vt 178.0790 792.7040
vt 181.2600 798.1660
vt 177.0830 779.9480
vt -108.1840 809.5300
vt -103.1040 804.4890
vt -99.8390 792.1180
vt -79.8690 812.8100
vt -85.3669 835.2210
vt -76.2617 818.1940
vt -123.5340 798.9500
vt -154.7990 793.7880
vt -127.1840 821.7340
vt -124.2060 809.7190
vt -119.7000 772.8630
vt -155.4770 804.5990
vt -75.7571 781.9850
vt -83.0295 818.3960
vt -79.3927 823.7600
vt -60.0550 756.3630
vt -83.5286 781.5680
vt -86.6344 823.3870
vt -107.4760 803.5370
vt -146.0090 800.4690
vt -143.9090 834.5180
vt -185.3860 837.3370
vt -152.9760 838.3240
vt -155.6000 804.3120
vt -152.5610 804.7180
vt -184.9700 803.7060
vt -145.5460 823.8830
vt -187.7720 818.5900
vt -161.2900 844.4970
vt -148.2420 838.5590
vt -146.7610 801.7120
vt -172.4750 775.0420
vt -157.1980 809.6460
vt -169.6700 771.0000
vt -192.8410 783.9850
vt -154.5840 805.6870
vt -165.5300 823.8340
vt -155.9570 812.6840
vt -194.2770 791.0920
vt -130.3650 795.9510
vt -173.9610 777.8790
vt -183.0720 789.4090
vt -18.2469 284.2820
vt -20.1053 279.2050
vt -52.1937 251.4970
vt -149.3100 538.7570
vt -145.3350 542.4200
vt -101.7990 552.6930
vt -155.7050 706.7600
vt -156.0180 711.8950
vt -111.8090 715.3620
vt -127.3510 708.9240
vt -126.5650 703.8400
vt -179.2000 696.7390
vt -136.5470 842.2210
vt -188.6880 831.3510
vt -133.6150 867.9050
vt -191.0060 842.7270
vt -196.4020 871.2610
vt -135.7370 878.9840
vt -135.9110 883.4180
vt -196.5790 875.7210
vt -200.8920 899.3240
vt -244.6690 899.7500
vt -162.3390 910.2560
vt -155.9950 887.1170
vt 160.9080 878.1760
vt 243.2070 867.4260
vt 154.3580 854.8280
vt 246.4140 804.6340
vt 225.5570 778.6430
vt 157.6610 791.3780
vt 193.8440 906.7370
vt 307.2150 883.4400
vt 170.4470 883.0060
vt -196.0320 931.8430
vt -173.0240 908.1620
vt -309.4730 908.8920
vt -227.5010 807.1940
vt -248.1660 832.9450
vt -159.5910 819.6420
vt -173.0950 878.9410
vt -263.2130 852.6930
vt -309.5440 879.6850
vt -316.1310 856.7560
vt -270.0760 829.2960
vt -340.5090 808.3100
vt -386.8070 818.2630
vt -300.0190 830.2010
vt -323.1290 781.1370
vt 132.3390 873.3130
vt 200.3730 867.2810
vt 196.1120 843.4080
vt -133.0700 902.3000
vt -136.1430 880.4610
vt -201.1150 896.4040
vt -156.7830 899.7390
vt -152.5490 921.3830
vt -110.8250 901.6020
vt -152.1590 924.1810
vt -105.8130 922.6760
vt -110.4140 904.4460
vt -72.2800 911.1600
vt -115.5480 910.5510
vt -110.6980 928.7170
vt -121.1490 885.3740
vt -115.5320 906.5930
vt -72.2639 907.2040
vt -118.1110 881.8640
vt -163.2640 876.0620
vt -112.6590 903.1260
vt -155.2180 676.8920
vt -110.2250 683.8270
vt -111.0190 680.4830
vt -115.5790 690.5170
vt -70.1386 696.1400
vt -70.6703 693.4960
vt -116.4390 687.1900
vt -76.4133 896.2410
vt -121.9590 891.5480
vt -73.0286 913.2760
vt -76.9772 896.7210
vt -73.5679 913.7520
vt -36.6120 898.9560
vt -72.5714 922.0790
vt -33.9738 921.1950
vt -35.5768 907.3800
vt -72.6237 914.3450
vt -69.6936 928.9760
vt -34.0262 913.4550
vt -69.0253 928.3730
vt -71.9283 913.7370
vt -110.3630 931.2580
vt 69.6853 894.3820
vt 111.0170 897.3460
vt 116.0560 878.9890
vt 72.9517 881.9370
vt 69.8890 896.7240
vt 116.2690 881.3610
vt 69.9478 896.7830
vt 73.0131 881.9960
vt 32.8683 893.0800
vt 73.7496 891.6810
vt 35.1219 890.7220
vt 33.5812 902.6800
vt 36.7129 891.7770
vt 35.0163 905.6540
vt 73.6443 906.6020
vt 35.6172 891.2330
vt -3.3999 893.4100
vt 33.9604 905.1150
vt -1.3044 1008.2500
vt 37.7217 1006.2500
vt 0.2067 1006.5400
vt 37.7401 1011.9100
vt 37.9208 1009.9600
vt 0.2252 1012.2000
vt 40.1415 1012.5600
vt 80.5791 1010.5700
vt 40.3284 1010.6100
vt 78.2844 880.1970
vt 37.8565 882.3750
vt 74.7428 897.3110
vt 76.4610 878.5680
vt 73.0030 895.6990
vt 116.3200 895.1290
vt 80.5803 1013.2200
vt 80.9815 1010.8600
vt 40.3296 1013.2700
vt -74.5864 697.1140
vt -74.0154 699.7490
vt -33.9825 700.2300
vt -74.0925 723.8050
vt -33.7496 726.4110
vt -34.0595 724.2740
vt 5.5435 725.8370
vt -32.1130 723.0170
vt -31.8186 725.1560
vt 6.8721 781.1480
vt 5.2876 779.3000
vt -32.0750 778.6530
vt 11.2326 761.0040
vt 12.7782 762.8840
vt 37.5974 764.6790
vt 10.8163 866.2050
vt 46.2473 870.3280
vt 35.6464 867.8430
vt 44.2370 929.8310
vt 8.7846 925.8960
vt 45.0575 936.5620
vt 9.3621 919.6510
vt 9.3256 930.2650
vt 45.6202 930.3670
vt 4.4929 919.6070
vt -34.4709 917.3870
vt 4.5808 930.2220
vt -33.3524 906.3690
vt -31.8259 920.1920
vt 5.6641 919.3100
vt 5.8276 936.3020
vt 5.7196 927.2180
vt -31.7705 928.0950
vt 9.3282 927.1980
vt 9.3543 936.2820
vt 45.6228 927.2990
vt 9.6955 940.9560
vt 45.3788 937.6030
vt 45.9718 932.0040
vt -8.8536 910.3000
vt -8.7668 901.1450
vt -44.5293 906.8670
vt -4.5785 901.2890
vt -4.7699 910.4420
vt 32.9370 902.2380
vt -5.5676 897.4070
vt 30.6818 901.0880
vt 32.1205 889.1180
vt -29.8453 930.7700
vt 6.4127 927.1740
vt -31.1729 918.9100
vt -68.8997 935.3060
vt -31.8092 931.7160
vt -33.1988 919.8630
vt -4.5703 905.8730
vt -4.6908 916.5280
vt 32.8250 917.4660
vt -7.7504 905.8460
vt -43.2532 909.7490
vt -7.7854 916.5010
vt -4.2616 1001.9100
vt -2.7578 1000.1900
vt -39.7910 1005.5600
vt 0.6831 1050.8600
vt -25.7715 1053.8300
vt -36.3699 1056.1000
vt 68.2513 531.2370
vt 77.0145 524.8560
vt 68.0282 531.0040
vt 1.6103 491.3880
vt 25.3888 481.3350
vt 25.2292 481.0550
vt -48.7677 917.9520
vt -74.3782 921.2050
vt -49.5269 924.7110
vt -75.1111 938.4450
vt -77.0721 942.2480
vt -50.2536 941.9070
vt 75.9725 937.1710
vt 50.4047 933.8660
vt 77.9256 940.9780
vt 51.5845 934.8390
vt 50.9142 940.4290
vt 78.3841 935.2380
vt 50.8711 928.0950
vt 77.4698 938.8070
vt 78.4092 935.6560
vt 50.9390 940.8460
vt -77.1038 934.1280
vt -76.1744 937.2820
vt -50.2853 933.7840
vt -76.9816 917.3120
vt -50.4535 919.3850
vt -51.0999 913.7610
vt -8.3297 910.5520
vt -44.6491 910.5990
vt -44.0990 916.2320
vt -43.8009 919.3130
vt -44.6433 926.0620
vt -8.3239 926.0170
vt -161.1450 862.5180
vt -156.6440 887.9740
vt -110.6870 889.8540
vt -126.4750 796.3770
vt -155.7780 773.0490
vt -166.0560 781.1860
vt -135.4640 832.9700
vt -131.6530 812.8480
vt -165.2570 810.2700
vt -131.9460 823.5550
vt -152.5550 814.9480
vt -165.5520 820.9980
vt -163.2370 818.2350
vt -155.8310 837.2530
vt -135.1650 845.7220
vn -0.9304 0.3648 -0.0354
vn -0.9392 0.3433 0.0049
vn -0.9044 0.4235 0.0513
vn -0.2896 -0.7636 -0.5771
vn -0.3131 -0.7633 -0.5651
vn 0.9306 -0.3526 -0.0984
vn 0.9336 -0.3580 -0.0126
vn 0.9031 -0.4287 -0.0233
vn -0.9055 0.4164 -0.0815
vn -0.9035 0.4273 0.0335
vn -0.8375 0.5186 0.1723
vn -0.8452 0.5208 0.1201
vn -0.8988 0.4235 0.1134
vn -0.9470 0.3072 0.0942
vn -0.8625 0.4493 0.2330
vn -0.9149 0.3571 0.1884
vn -0.3372 -0.9409 -0.0321
vn 0.8408 -0.5404 -0.0303
vn 0.8889 -0.4304 -0.1568
vn 0.9047 -0.3857 -0.1808
vn 0.8869 -0.4238 -0.1841
vn 0.8965 -0.4277 -0.1159
vn 0.9033 -0.4259 -0.0509
vn 0.8416 -0.4995 -0.2052
vn 0.8692 -0.4628 -0.1741
vn 0.9097 -0.4152 0.0001
vn 0.9086 -0.4122 0.0678
vn 0.9148 -0.4011 0.0470
vn -0.0970 -0.3469 -0.9329
vn 0.3743 0.8304 -0.4128
vn -0.8912 0.4533 0.0157
vn -0.8481 0.4969 0.1838
vn -0.8095 0.4919 0.3207
vn 0.1590 0.7240 -0.6713
vn 0.3643 0.8827 -0.2967
vn -0.7934 0.4708 0.3857
vn -0.8327 0.3488 0.4300
vn -0.8347 0.3400 0.4332
vn -0.7746 -0.4208 0.4721
vn 0.4028 -0.9126 -0.0704
vn -0.2630 -0.3145 0.9121
vn -0.8178 0.5236 0.2390
vn -0.8048 0.5196 0.2868
vn -0.6831 0.6045 0.4098
vn -0.8778 0.4595 0.1355
vn -0.7441 0.6636 0.0769
vn -0.8454 0.5277 0.0822
vn -0.8782 0.4745 0.0598
vn -0.8557 0.5159 0.0415
vn 0.2779 0.9150 -0.2926
vn 0.9126 -0.4074 -0.0342
vn -0.1897 0.6113 0.7683
vn 0.9294 -0.3671 -0.0381
vn 0.8018 0.2127 0.5585
vn 0.8836 -0.4434 -0.1508
vn 0.8733 -0.4319 -0.2256
vn 0.8645 -0.4421 -0.2391
vn 0.8542 -0.4722 -0.2175
vn 0.8055 -0.5757 -0.1405
vn 0.6911 -0.7017 -0.1734
vn 0.7766 -0.5529 -0.3020
vn 0.8341 -0.4609 -0.3030
vn 0.8806 -0.3759 -0.2885
vn 0.4272 0.8828 -0.1956
vn 0.8865 -0.4495 0.1101
vn 0.8104 -0.4441 -0.3822
vn 0.8085 -0.4305 -0.4011
vn 0.7668 -0.5315 -0.3600
vn 0.7414 -0.5663 -0.3600
vn 0.7762 -0.5061 -0.3761
vn 0.8166 -0.4194 -0.3967
vn 0.4326 0.8905 -0.1406
vn -0.7932 0.4604 0.3985
vn -0.7379 0.5546 0.3847
vn -0.8027 0.4462 0.3957
vn -0.8381 0.3384 0.4278
vn -0.8392 0.3567 0.4105
vn -0.7219 -0.5451 0.4263
vn -0.3650 -0.8947 0.2577
vn 0.7988 -0.4785 -0.3646
vn 0.2508 -0.9667 0.0512
vn 0.6318 -0.7513 -0.1907
vn 0.8378 -0.3999 -0.3717
vn 0.8264 -0.4078 -0.3884
vn 0.8813 -0.2772 -0.3827
vn 0.4971 0.8524 0.1621
vn -0.8176 0.4299 0.3831
vn -0.8750 -0.0538 0.4811
vn -0.7929 -0.4180 0.4434
vn -0.8371 0.4110 0.3612
vn 0.8542 -0.3970 -0.3358
vn -0.8315 0.4308 0.3507
usemtl _auto_.001
s 1
f 1/1/1 2/2/2 3/3/3
f 4/4/4 2/5/2 1/6/1
f 4/7/4 5/8/5 2/9/2
f 5/10/5 4/11/4 6/12/6
f 4/13/4 7/14/7 6/15/6
f 4/16/4 8/17/8 7/18/7
f 8/19/8 4/20/4 1/21/1
f 8/22/8 1/23/1 9/24/9
f 1/25/1 10/26/10 9/27/9
f 10/28/10 1/29/1 3/30/3
f 10/31/10 3/32/3 11/33/11
f 3/34/3 12/35/12 11/36/11
f 3/37/3 13/38/13 12/39/12
f 13/40/13 3/41/3 2/42/2
f 14/43/14 13/44/13 2/45/2
f 13/46/13 14/47/14 15/48/15
f 14/49/14 16/50/16 15/51/15
f 17/52/17 16/53/16 14/54/14
f 17/55/17 18/56/18 16/57/16
f 18/58/18 17/59/17 19/60/19
f 17/61/17 20/62/20 19/63/19
f 17/64/17 5/65/5 20/66/20
f 5/67/5 17/68/17 14/69/14
f 5/70/5 14/71/14 2/72/2
f 5/73/5 6/74/6 20/75/20
f 6/76/6 21/77/21 20/78/20
f 21/79/21 6/80/6 22/81/22
f 6/82/6 7/83/7 22/84/22
f 23/85/23 22/86/22 7/87/7
f 23/88/23 24/89/24 22/90/22
f 24/91/24 23/92/23 25/93/25
f 23/94/23 26/95/26 25/96/25
f 26/97/26 23/98/23 27/99/27
f 23/100/23 28/101/28 27/102/27
f 28/103/28 23/104/23 7/105/7
f 8/106/8 28/107/28 7/108/7
f 28/109/28 8/110/8 27/111/27
f 8/112/8 29/113/29 27/114/27
f 29/115/29 8/116/8 9/117/9
f 29/118/29 9/119/9 30/120/30
f 30/121/30 9/122/9 31/123/31
f 10/124/10 31/125/31 9/126/9
f 10/127/10 11/128/11 31/129/31
f 11/130/11 32/131/32 31/132/31
f 33/133/33 32/134/32 11/135/11
f 33/136/33 34/137/34 32/138/32
f 34/139/34 33/140/33 35/141/35
f 33/142/33 36/143/36 35/144/35
f 37/145/37 36/146/36 33/147/33
f 37/148/37 38/149/38 36/150/36
f 38/151/38 37/152/37 39/153/39
f 37/154/37 40/155/40 39/156/39
f 37/157/37 41/158/41 40/159/40
f 41/160/41 37/161/37 33/162/33
f 41/163/41 33/164/33 11/165/11
f 41/166/41 11/167/11 42/168/42
f 11/169/11 12/170/12 42/171/42
f 13/172/13 42/173/42 12/174/12
f 13/175/13 15/176/15 42/177/42
f 15/178/15 43/179/43 42/180/42
f 15/181/15 44/182/44 43/183/43
f 44/184/44 15/185/15 16/186/16
f 45/187/45 44/188/44 16/189/16
f 44/190/44 45/191/45 46/192/46
f 45/193/45 47/194/47 46/195/46
f 48/196/48 47/197/47 45/198/45
f 48/199/48 49/200/49 47/201/47
f 50/202/50 49/203/49 48/204/48
f 46/205/46 49/206/49 50/207/50
f 46/208/46 47/209/47 49/210/49
f 46/211/46 50/212/50 18/213/18
f 50/214/50 48/215/48 18/216/18
f 18/217/18 48/218/48 45/219/45
f 18/220/18 45/221/45 16/222/16
f 44/223/44 46/224/46 18/225/18
f 51/226/51 44/227/44 18/228/18
f 52/229/52 44/230/44 51/231/51
f 44/232/44 52/233/52 43/234/43
f 42/235/42 43/236/43 52/237/52
f 41/238/41 42/239/42 52/240/52
f 41/241/41 52/242/52 53/243/53
f 52/244/52 54/245/54 53/246/53
f 54/247/54 52/248/52 51/249/51
f 53/250/53 54/251/54 51/252/51
f 55/253/55 53/254/53 51/255/51
f 55/256/55 56/257/56 53/258/53
f 55/259/55 19/260/19 56/261/56
f 19/262/19 55/263/55 51/264/51
f 18/265/18 19/266/19 51/267/51
f 19/268/19 20/269/20 56/270/56
f 21/271/21 56/272/56 20/273/20
f 56/274/56 21/275/21 57/276/57
f 21/277/21 58/278/58 57/279/57
f 58/280/58 21/281/21 59/282/59
f 21/283/21 22/284/22 59/285/59
f 24/286/24 59/287/59 22/288/22
f 60/289/60 59/290/59 24/291/24
f 60/292/60 41/293/41 59/294/59
f 41/295/41 60/296/60 40/297/40
f 60/298/60 61/299/61 40/300/40
f 61/301/61 60/302/60 24/303/24
f 61/304/61 24/305/24 62/306/62
f 24/307/24 25/308/25 62/309/62
f 62/310/62 25/311/25 63/312/63
f 64/313/64 63/314/63 25/315/25
f 63/316/63 64/317/64 32/318/32
f 64/319/64 31/320/31 32/321/32
f 64/322/64 30/323/30 31/324/31
f 64/325/64 26/326/26 30/327/30
f 26/328/26 64/329/64 25/330/25
f 26/331/26 27/332/27 30/333/30
f 30/334/30 27/335/27 29/336/29
f 65/337/65 30/338/65 29/339/65
f 34/340/34 63/341/63 32/342/32
f 34/343/34 62/344/62 63/345/63
f 62/346/62 34/347/34 66/348/66
f 34/349/34 35/350/35 66/351/66
f 67/352/67 66/353/66 35/354/35
f 68/355/68 66/356/66 67/357/67
f 68/358/68 61/359/61 66/360/66
f 61/361/61 68/362/68 40/363/40
f 68/364/68 69/365/69 39/366/39 40/367/40
f 69/368/69 68/369/68 67/370/67
f 69/371/69 67/372/67 70/373/70
f 67/374/67 71/375/71 70/376/70
f 67/377/67 72/378/72 71/379/71
f 72/380/72 67/381/67 35/382/35
f 72/383/72 35/384/35 36/385/36
f 73/386/73 72/387/72 36/388/36
f 72/389/72 73/390/73 74/391/74
f 73/392/73 75/393/75 74/394/74
f 76/395/76 75/396/75 73/397/73
f 76/398/76 77/399/77 75/400/75
f 77/401/77 76/402/76 78/403/78
f 76/404/76 79/405/79 78/406/78
f 76/407/76 38/408/38 79/409/79
f 38/410/38 76/411/76 73/412/73
f 38/413/38 73/414/73 36/415/36
f 38/416/38 39/417/39 79/418/79
f 39/419/39 69/420/69 79/421/79
f 69/422/69 70/423/70 79/424/79
f 78/425/78 79/426/79 70/427/70
f 80/428/80 78/429/78 70/430/70
f 78/431/78 80/432/80 81/433/81
f 80/434/80 82/435/82 81/436/81
f 82/437/82 80/438/80 83/439/83
f 80/440/80 84/441/84 83/442/83
f 80/443/80 70/444/70 84/445/84
f 70/446/70 71/447/71 84/448/84
f 85/449/85 84/450/84 71/451/71
f 84/452/84 85/453/85 83/454/83
f 85/455/85 86/456/86 83/457/83
f 85/458/85 87/459/87 86/460/86
f 87/461/87 85/462/85 75/463/75
f 85/464/85 74/465/74 75/466/75
f 74/467/74 85/468/85 71/469/71
f 72/470/72 74/471/74 71/472/71
f 77/473/77 87/474/87 75/475/75
f 77/476/77 88/477/88 87/478/87
f 77/479/77 78/480/78 88/481/88
f 78/482/78 81/483/81 88/484/88
f 88/485/88 81/486/81 82/487/82
f 89/488/89 88/489/88 82/490/82
f 88/491/88 89/492/89 90/493/90
f 89/494/89 91/495/91 90/496/90
f 89/497/89 82/498/82 91/499/91
f 83/500/83 86/501/86 91/502/91 82/503/82
f 92/504/92 91/505/91 86/506/86
f 91/507/91 92/508/92 90/509/90
f 92/510/92 86/511/86 90/512/90
f 87/513/87 90/514/90 86/515/86
f 88/516/88 90/517/90 87/518/87
f 61/519/61 62/520/62 66/521/66
f 41/522/41 58/523/58 59/524/59
f 41/525/41 53/526/53 58/527/58
f 53/528/53 57/529/57 58/530/58
f 56/531/56 57/532/57 53/533/53
