# Blender v2.78 (sub 0) OBJ File: ''
# www.blender.org
mtllib 3.mtl
o Mesh2_skpB7F8_1_Model.001
v -9.747380 -12.582293 -45.332302
v -9.657310 -8.702504 -34.772099
v -11.473100 -16.054295 -33.361404
v -11.598400 -10.672296 -27.952501
v -8.722770 -3.702615 -28.204800
v -10.498600 -5.949896 -24.007603
v -12.540100 -11.877896 -21.268902
v -13.648100 -17.447996 -25.302002
v -11.063900 -10.810696 -27.989801
v -11.483300 -7.170146 -20.785702
v -12.515000 -7.934827 -16.932602
v -11.677900 -12.167496 -21.330101
v -14.235800 -18.130098 -17.482004
v -12.711300 -12.659997 -16.589901
v -13.118000 -8.926878 -12.787802
v -13.557400 -12.434797 -16.541002
v -14.241400 -17.681498 -11.972503
v -12.958200 -12.658298 -11.503702
v -13.185900 -9.232519 -8.264532
v -14.056600 -12.363198 -11.441502
v -13.674100 -16.890497 -6.785013
v -12.835500 -12.639199 -6.825222
v -12.873800 -8.616429 -3.523062
v -13.972800 -12.333299 -6.762312
v -13.538100 -16.115900 -1.994973
v -12.815300 -11.922600 -2.059092
v -11.941800 -7.221530 1.729899
v -13.738500 -11.670900 -2.012052
v -13.217400 -14.612701 3.075227
v -12.527900 -10.748400 2.776708
v -11.111100 -5.910431 6.890919
v -13.211600 -10.555400 2.806108
v -12.776900 -13.146001 7.833798
v -11.783200 -9.380731 7.562038
v -10.295000 -5.024342 11.076899
v -12.443600 -9.192080 7.589798
v -12.201200 -11.500602 11.955298
v -10.873000 -7.880692 11.445999
v -9.651050 -3.922732 15.165999
v -11.539400 -7.690452 11.474199
v -11.275000 -9.362603 15.579398
v -10.063000 -6.328262 15.365699
v -8.715500 -2.543043 19.862900
v -10.731500 -6.137472 15.393999
v -9.812790 -5.938073 20.097898
v -8.888670 -3.907273 20.004801
v -8.335100 -1.247724 23.516899
v -9.437500 -3.748153 20.024200
v -8.860110 -3.069314 23.669701
v -8.542330 -1.985744 23.998699
vt -611.9810 738.9490
vt -484.4380 787.2210
vt -465.7040 695.7500
vt 346.8550 765.5960
vt 432.6680 789.9390
vt 411.1420 699.0850
vt 377.2510 749.1270
vt 453.8970 683.8320
vt 368.4870 658.1080
vt -369.7810 730.1500
vt -315.7870 700.5160
vt -445.8800 664.2180
vt 310.0310 717.0750
vt 364.2040 746.3810
vt 354.1700 655.4920
vt 350.6240 781.9820
vt 397.1230 722.1620
vt 315.4310 706.8900
vt 313.0310 726.4620
vt 394.7520 741.5810
vt 360.4650 656.6150
vt 344.0320 761.3380
vt 408.2240 694.7360
vt 307.0990 677.4880
vt -414.2360 647.3840
vt -351.6730 713.6370
vt -313.1740 629.7740
vt -463.7780 787.4570
vt -380.0060 761.3020
vt -443.8140 696.2470
vt -333.9530 817.9410
vt -380.8520 757.5360
vt -464.6120 783.7340
vt -358.3080 726.3360
vt -312.3140 787.4330
vt -271.6790 772.0950
vt 267.1880 789.5560
vt 307.8700 804.7700
vt 270.2570 730.8600
vt 216.6290 779.4660
vt 264.9250 789.0000
vt 267.9100 730.2990
vt -258.0150 814.1040
vt -252.2010 874.8050
vt -203.8560 865.5170
vt -318.2370 823.6360
vt -399.2990 840.1010
vt -311.8530 884.2790
vt -421.1970 690.2770
vt -340.3770 672.6620
vt -388.1810 604.1080
vt -379.2860 590.4060
vt -332.1350 659.4110
vt -284.2890 581.4930
vt -282.5660 697.8450
vt -223.7880 691.6060
vt -231.0410 622.3100
vt -213.2940 824.8870
vt -272.1010 830.8580
vt -217.8560 882.1800
vt -240.7340 823.0760
vt -245.1740 880.3790
vt -194.4060 868.3480
vt 210.3420 783.5090
vt 261.0410 795.8290
vt 255.1560 739.9480
vt 219.8900 740.9320
vt 226.9110 796.6810
vt 278.4930 747.8300
vt 217.1580 772.2320
vt 275.7690 779.0560
vt 226.7570 702.4380
vt 326.1730 743.1700
vt 374.2570 673.7690
vt 279.2220 665.2700
vt 283.0700 791.1860
vt 294.3860 721.6490
vt 227.6070 727.1260
vt -289.8510 645.1790
vt -279.4860 714.0790
vt -223.0870 650.8290
vt -271.3490 723.7580
vt -209.6260 723.7800
vt -214.5450 660.8730
vt -209.6620 853.0320
vt -271.3860 853.0120
vt -225.1140 898.3420
vt -219.6560 849.7400
vt -235.1820 895.0240
vt -180.3490 891.3150
vt 187.5220 758.6190
vt 242.3460 762.4610
vt 226.0670 719.2670
vt 189.7900 735.4460
vt 207.1710 778.2080
vt 251.8970 734.5560
vt 190.7280 821.5480
vt 252.8360 820.6810
vt 196.9140 757.0210
vt 259.0640 830.4840
vt 265.7010 766.0020
vt 202.4480 775.5920
vt -254.9060 673.4000
vt -248.1310 736.1340
vt -191.6980 683.2790
vt -233.7830 757.2390
vt -177.0540 757.4760
vt -176.8250 704.9490
vt -177.4310 860.3880
vt -234.1590 860.1540
vt -194.9830 901.8530
vt -192.5730 854.6470
vt -210.2880 896.0430
vt -152.6940 903.5300
vt 138.7980 770.7060
vt 196.3600 762.9740
vt 178.4540 724.0560
vt 173.5920 726.9020
vt 191.6430 765.7530
vt 230.3180 726.5280
vt 174.2880 858.5990
vt 231.0140 858.2360
vt 174.4970 803.2420
vt 181.1340 858.3760
vt 181.2680 803.0180
vt 123.1870 812.4280
vt -167.2620 704.0820
vt -167.7850 756.6070
vt -109.2070 713.6530
vt -161.9050 767.5420
vt -104.1520 776.3550
vt -103.1860 724.7810
vt -113.2260 848.2460
vt -170.9980 839.5600
vt -130.9760 888.3250
vt -161.5170 826.2480
vt -179.1450 866.3800
vt -114.4840 883.3120
vt 92.9992 761.5980
vt 157.4300 743.8120
vt 140.1320 704.8650
vt 113.6360 721.7680
vt 131.8540 760.2930
vt 171.2390 713.4130
vt 128.9000 860.3960
vt 186.5480 852.3580
vt 128.5590 806.4630
vt 135.6910 860.2320
vt 135.2990 806.2990
vt 73.7245 824.5380
vt -114.3610 725.1600
vt -115.0320 776.7390
vt -52.8611 743.6500
vt -116.2250 773.6340
vt -57.5616 788.0940
vt -54.0757 740.5050
vt -58.1949 791.7900
vt -116.8630 777.3510
vt -70.7550 835.1640
vt -87.1895 781.1800
vt -99.0217 824.7580
vt -35.7367 840.9580
vt 20.5148 739.5280
vt 83.5592 722.4150
vt 71.4488 678.9020
vt 58.6037 684.4610
vt 71.3429 727.7940
vt 117.1200 669.9610
vt 86.7843 857.3940
vt 145.5340 843.8720
vt 83.5484 808.2130
vt 81.3657 857.7470
vt 78.1232 808.5670
vt 20.1971 826.3450
vt -60.8747 740.0370
vt -64.1842 787.6390
vt -3.0380 758.1040
vt -77.3300 747.0180
vt -18.7972 764.1840
vt -16.4566 716.9250
vt -23.8392 791.7470
vt -82.4369 774.8040
vt -31.1669 834.7380
vt -39.8881 788.0230
vt -46.7435 831.0920
vt 4.8973 842.0890
vt -17.5704 737.4080
vt 33.9215 725.7340
vt 27.1713 682.4980
vt 7.6097 688.1350
vt 15.3914 731.1970
vt 65.9353 670.2460
vt 36.4833 844.1630
vt 95.1904 827.5690
vt 34.0892 796.0360
vt 26.9149 844.6840
vt 24.3889 796.5630
vt -26.0218 816.5890
vt -1.9608 718.0830
vt -4.8515 765.3120
vt 48.2019 738.7220
vt -21.6498 708.7500
vt 26.2129 728.1870
vt 30.9543 681.2820
vt 8.0350 806.9850
vt -40.1538 788.3710
vt 4.6417 842.4290
vt 22.7237 809.4640
vt 18.9664 844.8710
vt 69.0599 858.5260
vt -88.9402 728.6970
vt -39.1610 713.9370
vt -43.5136 678.2150
vt -37.6707 676.5530
vt -33.6071 712.3100
vt 9.8966 656.4140
vt -4.4067 820.4760
vt 43.8097 801.9440
vt -8.9163 773.4560
vt -9.1006 821.1770
vt -13.7429 774.1700
vt -58.8158 800.5470
vt 47.3293 685.1580
vt 41.7402 731.9690
vt 91.6343 712.8050
vt 38.4325 715.8070
vt 86.3537 736.0900
vt 88.2501 696.4450
vt 60.6982 843.5580
vt 12.3021 824.4350
vt 58.9645 873.1880
vt 57.4855 843.1670
vt 55.8084 872.8010
vt 113.7800 889.7980
vt -139.5930 734.7350
vt -82.1302 716.0910
vt -84.1813 686.1640
vt -96.7445 689.7990
vt -94.1416 719.6830
vt -49.1140 668.8440
vt -59.4092 847.0910
vt -11.0086 827.9820
vt -60.7464 807.4060
vt -43.9065 845.9730
vt -44.8996 806.2780
vt -101.9980 848.4270
vt 96.6223 698.2030
vt 94.3229 737.8270
vt 151.7320 742.9220
vt 95.6382 708.9480
vt 152.0810 741.1970
vt 153.0380 714.1460
vt 105.9730 889.0600
vt 48.1194 859.4160
vt 104.6460 905.7650
vt 140.4150 895.3400
vt 138.8180 912.0210
vt 183.2990 927.8590
vt -225.3540 717.0840
vt -181.7730 698.9160
vt -184.6180 682.0140
vt -164.2760 668.4910
vt -162.0780 685.4900
vt -108.6090 634.7880
vt -101.9400 876.0810
vt -43.8861 846.6810
vt -101.9780 849.1350
vt -120.2400 877.4190
vt -120.5580 850.4750
vt -164.9560 885.7720
vt 189.2510 839.3090
vt 145.5160 803.1940
vt 193.3930 852.9510
vt 192.7860 729.7540
vt 190.2300 756.7020
vt 237.7020 782.1990
vt 214.5150 868.4880
vt 166.2910 844.4420
vt 208.5860 877.7240
vt -183.0320 825.5890
vt -177.4050 835.0110
vt -134.1580 803.0880
vt -173.9190 860.5630
vt -124.8460 838.4990
vt -169.5340 846.9980
vn 0.9714 -0.2256 0.0746
vn -0.9462 0.2819 -0.1591
vn 0.9632 -0.2600 0.0683
vn -0.0393 -0.7034 -0.7097
vn -0.9224 0.3471 -0.1695
vn 0.0207 0.5815 0.8133
vn -0.9626 0.2293 -0.1444
vn -0.2536 -0.9158 -0.3114
vn 0.9643 -0.2327 0.1266
vn 0.9903 0.0903 0.1055
vn 0.0936 0.9741 0.2057
vn 0.9720 -0.1964 0.1293
vn -0.2330 -0.9715 -0.0445
vn 0.9847 -0.1369 0.1081
vn 0.1018 0.9945 0.0244
vn -0.9806 0.1610 -0.1121
vn -0.1447 -0.9895 -0.0046
vn 0.9966 -0.0820 -0.0012
vn 0.0925 0.9951 -0.0341
vn -0.9920 0.1259 -0.0090
vn -0.0797 -0.9921 0.0967
vn 0.9978 -0.0639 -0.0181
vn 0.1200 0.9840 -0.1317
vn -0.9942 0.1035 0.0282
vn -0.0545 -0.9648 0.2572
vn 0.9921 -0.1212 -0.0319
vn 0.2141 0.9573 -0.1941
vn -0.9874 0.1469 0.0595
vn -0.0564 -0.9339 0.3530
vn 0.9786 -0.1976 -0.0576
vn 0.2625 0.9268 -0.2684
vn -0.9755 0.2070 0.0748
vn -0.1139 -0.9356 0.3342
vn 0.9632 -0.2515 -0.0950
vn 0.2735 0.9064 -0.3218
vn -0.9595 0.2651 0.0957
vn -0.1764 -0.8812 0.4386
vn 0.9557 -0.2806 -0.0889
vn 0.2715 0.8995 -0.3422
vn -0.9469 0.3098 0.0856
vn -0.1848 -0.8291 0.5276
vn 0.9564 -0.2788 -0.0876
vn 0.2836 0.8801 -0.3808
vn -0.9420 0.3234 0.0901
vn 0.5896 -0.7043 0.3955
vn 0.9621 -0.2722 -0.0183
vn 0.3265 0.9420 -0.0770
vn -0.9435 0.3254 0.0629
vn -0.9706 0.1506 0.1877
vn 0.8937 -0.3485 0.2824
usemtl _auto_.001
s 1
f 1/1/1 2/2/1 3/3/1
f 4/4/2 2/5/3 3/6/4
f 5/7/5 2/8/3 4/9/2
f 5/10/5 6/11/6 2/12/3
f 6/13/6 5/14/5 4/15/2
f 6/16/6 4/17/2 7/18/7
f 7/19/7 4/20/2 8/21/8
f 4/22/2 3/23/4 8/24/8
f 3/25/4 9/26/9 8/27/8
f 2/28/3 9/29/9 3/30/4
f 6/31/6 9/32/9 2/33/3
f 9/34/9 6/35/6 10/36/10
f 10/37/10 6/38/6 7/39/7
f 11/40/11 10/41/10 7/42/7
f 12/43/12 10/44/10 11/45/11
f 12/46/12 9/47/9 10/48/10
f 9/49/9 12/50/12 8/51/8
f 8/52/8 12/53/12 13/54/13
f 12/55/12 14/56/14 13/57/13
f 14/58/14 12/59/12 11/60/11
f 14/61/14 11/62/11 15/63/15
f 15/64/15 11/65/11 16/66/16
f 16/67/16 11/68/11 7/69/7
f 16/70/16 7/71/7 13/72/13
f 7/73/7 8/74/8 13/75/13
f 16/76/16 13/77/13 17/78/17
f 13/79/13 14/80/14 17/81/17
f 14/82/14 18/83/18 17/84/17
f 18/85/18 14/86/14 15/87/15
f 18/88/18 15/89/15 19/90/19
f 19/91/19 15/92/15 20/93/20
f 20/94/20 15/95/15 16/96/16
f 20/97/20 16/98/16 17/99/17
f 20/100/20 17/101/17 21/102/21
f 17/103/17 18/104/18 21/105/21
f 18/106/18 22/107/22 21/108/21
f 22/109/22 18/110/18 19/111/19
f 22/112/22 19/113/19 23/114/23
f 23/115/23 19/116/19 24/117/24
f 24/118/24 19/119/19 20/120/20
f 24/121/24 20/122/20 21/123/21
f 24/124/24 21/125/21 25/126/25
f 21/127/21 22/128/22 25/129/25
f 22/130/22 26/131/26 25/132/25
f 26/133/26 22/134/22 23/135/23
f 26/136/26 23/137/23 27/138/27
f 27/139/27 23/140/23 28/141/28
f 28/142/28 23/143/23 24/144/24
f 28/145/28 24/146/24 25/147/25
f 28/148/28 25/149/25 29/150/29
f 25/151/25 26/152/26 29/153/29
f 26/154/26 30/155/30 29/156/29
f 30/157/30 26/158/26 27/159/27
f 30/160/30 27/161/27 31/162/31
f 31/163/31 27/164/27 32/165/32
f 32/166/32 27/167/27 28/168/28
f 32/169/32 28/170/28 29/171/29
f 32/172/32 29/173/29 33/174/33
f 29/175/29 30/176/30 33/177/33
f 30/178/30 34/179/34 33/180/33
f 34/181/34 30/182/30 31/183/31
f 34/184/34 31/185/31 35/186/35
f 35/187/35 31/188/31 36/189/36
f 36/190/36 31/191/31 32/192/32
f 36/193/36 32/194/32 33/195/33
f 36/196/36 33/197/33 37/198/37
f 33/199/33 34/200/34 37/201/37
f 34/202/34 38/203/38 37/204/37
f 38/205/38 34/206/34 35/207/35
f 38/208/38 35/209/35 39/210/39
f 39/211/39 35/212/35 40/213/40
f 40/214/40 35/215/35 36/216/36
f 40/217/40 36/218/36 37/219/37
f 40/220/40 37/221/37 41/222/41
f 37/223/37 38/224/38 41/225/41
f 38/226/38 42/227/42 41/228/41
f 42/229/42 38/230/38 39/231/39
f 42/232/42 39/233/39 43/234/43
f 43/235/43 39/236/39 44/237/44
f 44/238/44 39/239/39 40/240/40
f 44/241/44 40/242/40 41/243/41
f 44/244/44 41/245/41 45/246/45
f 41/247/41 42/248/42 45/249/45
f 42/250/42 46/251/46 45/252/45
f 46/253/46 42/254/42 43/255/43
f 46/256/46 43/257/43 47/258/47
f 47/259/47 43/260/43 48/261/48
f 48/262/48 43/263/43 44/264/44
f 48/265/48 44/266/44 45/267/45
f 48/268/48 45/269/45 49/270/49
f 49/271/49 45/272/45 50/273/50
f 45/274/45 46/275/46 50/276/50
f 50/277/50 46/278/46 47/279/47
f 50/280/50 47/281/47 48/282/48
f 50/283/50 48/284/48 49/285/49
